<?xml version="1.0" standalone="no"?>
<!DOCTYPE svg PUBLIC "-//W3C//DTD SVG 20010904//EN"
 "http://www.w3.org/TR/2001/REC-SVG-20010904/DTD/svg10.dtd">
<svg version="1.0" xmlns="http://www.w3.org/2000/svg"
 width="3600.000000pt" height="3600.000000pt" viewBox="0 0 3600.000000 3600.000000"
 preserveAspectRatio="xMidYMid meet">
<metadata>
Created by potrace 1.11, written by Peter Selinger 2001-2013
</metadata>
<g transform="translate(0.000000,3600.000000) scale(0.100000,-0.100000)"
fill="#000000" stroke="none">
<path d="M17730 35457 c-3 -3 -27 -7 -55 -11 -140 -16 -321 -60 -473 -115
-119 -43 -226 -90 -477 -211 -203 -98 -322 -155 -700 -335 -60 -28 -157 -75
-215 -102 -58 -28 -157 -76 -220 -106 -63 -30 -178 -85 -255 -122 -77 -37
-174 -83 -215 -102 -41 -18 -88 -41 -105 -50 -48 -27 -148 -74 -350 -168 -38
-18 -133 -63 -210 -100 -140 -67 -275 -132 -435 -207 -46 -22 -153 -74 -237
-114 -85 -41 -192 -92 -239 -114 -46 -22 -144 -69 -217 -104 -73 -35 -166 -80
-207 -99 -41 -19 -151 -72 -245 -117 -93 -45 -197 -95 -230 -110 -33 -15 -132
-63 -220 -105 -88 -42 -187 -90 -220 -105 -33 -15 -134 -64 -225 -107 -91 -44
-205 -99 -255 -123 -49 -23 -146 -70 -215 -103 -69 -33 -161 -76 -205 -97 -44
-20 -141 -67 -215 -102 -165 -80 -323 -155 -455 -218 -55 -26 -158 -76 -230
-110 -71 -34 -177 -85 -235 -112 -58 -28 -157 -75 -220 -105 -63 -31 -160 -77
-215 -103 -55 -26 -158 -76 -230 -110 -324 -156 -386 -185 -474 -227 -174 -81
-266 -125 -281 -134 -8 -5 -22 -12 -30 -16 -39 -17 -246 -115 -585 -278 -77
-37 -171 -82 -210 -100 -66 -31 -125 -59 -450 -215 -71 -34 -175 -84 -230
-110 -55 -26 -161 -77 -235 -112 -74 -36 -155 -75 -180 -86 -25 -11 -139 -66
-254 -121 -115 -56 -209 -101 -211 -101 -1 0 -92 -43 -201 -96 -110 -53 -226
-108 -259 -124 -33 -16 -145 -69 -248 -119 -103 -50 -189 -91 -191 -91 -2 0
-81 -38 -177 -84 -193 -93 -334 -160 -484 -231 -582 -275 -750 -381 -1005
-635 -306 -303 -519 -677 -630 -1107 -17 -64 -33 -130 -36 -147 -2 -17 -7 -39
-10 -48 -3 -9 -7 -25 -9 -35 -4 -17 -25 -113 -80 -350 -13 -60 -36 -157 -50
-218 -40 -174 -66 -288 -71 -311 -2 -12 -24 -107 -48 -210 -44 -186 -183 -795
-190 -831 -3 -10 -13 -56 -24 -103 -46 -191 -82 -350 -102 -440 -11 -52 -25
-113 -31 -134 -6 -22 -12 -48 -14 -58 -2 -10 -32 -138 -65 -286 -62 -269 -67
-288 -74 -319 -2 -10 -36 -156 -75 -325 -39 -169 -72 -317 -75 -330 -2 -13
-11 -50 -20 -83 -8 -33 -22 -91 -30 -130 -9 -38 -27 -119 -41 -180 -14 -60
-28 -121 -31 -135 -6 -30 -24 -109 -30 -130 -7 -28 -45 -195 -50 -220 -3 -14
-18 -79 -34 -145 -16 -66 -31 -131 -34 -145 -5 -27 -88 -388 -111 -485 -8 -33
-28 -121 -44 -196 -17 -74 -33 -142 -35 -150 -3 -8 -8 -25 -10 -39 -3 -14 -16
-77 -31 -140 -14 -63 -28 -123 -30 -133 -2 -10 -6 -26 -9 -35 -3 -9 -7 -28
-10 -42 -2 -14 -12 -56 -21 -95 -20 -83 -25 -103 -31 -133 -5 -27 -38 -165
-66 -282 -11 -47 -22 -96 -25 -110 -2 -14 -22 -101 -44 -195 -22 -93 -42 -181
-45 -194 -3 -12 -12 -53 -20 -90 -9 -36 -17 -73 -19 -81 -2 -8 -11 -46 -20
-85 -9 -38 -19 -81 -22 -95 -2 -14 -9 -43 -14 -65 -11 -46 -38 -161 -44 -190
-3 -11 -21 -90 -41 -175 -19 -85 -37 -164 -40 -175 -2 -11 -7 -33 -11 -50 -4
-16 -7 -32 -8 -35 -9 -40 -53 -232 -75 -325 -16 -66 -31 -131 -34 -145 -5 -27
-57 -255 -155 -675 -90 -391 -172 -747 -178 -775 -5 -26 -6 -30 -16 -70 -6
-22 -134 -581 -142 -620 -2 -8 -31 -134 -65 -280 -34 -146 -68 -294 -75 -330
-8 -36 -31 -132 -50 -215 -20 -82 -39 -161 -41 -174 -3 -13 -30 -132 -60 -265
-31 -132 -57 -248 -59 -256 -28 -129 -148 -645 -156 -675 -6 -22 -13 -51 -16
-65 -2 -14 -10 -56 -18 -95 -8 -38 -17 -92 -20 -120 -4 -27 -9 -61 -12 -75 -3
-14 -6 -122 -8 -240 -2 -168 2 -243 17 -345 37 -257 106 -487 214 -712 89
-186 169 -310 331 -513 224 -280 718 -895 728 -906 5 -6 24 -29 40 -50 17 -21
88 -110 160 -199 71 -88 132 -164 137 -170 4 -5 20 -26 36 -45 16 -19 102
-127 193 -240 90 -113 170 -211 176 -218 7 -7 34 -41 60 -75 26 -34 50 -64 53
-67 4 -3 107 -131 230 -285 123 -154 229 -285 235 -292 12 -15 -9 12 235 -293
113 -140 207 -257 210 -260 3 -3 75 -93 160 -200 85 -107 157 -197 161 -200 8
-7 192 -237 259 -324 14 -18 44 -55 67 -82 23 -27 121 -148 217 -269 97 -121
182 -227 189 -235 7 -8 86 -107 177 -220 90 -113 169 -210 175 -217 5 -7 15
-18 20 -25 191 -238 422 -526 430 -534 5 -6 21 -26 35 -45 14 -18 39 -49 55
-69 17 -19 64 -78 105 -130 41 -52 84 -106 97 -120 12 -14 119 -146 238 -295
119 -148 221 -277 228 -285 31 -38 93 -116 107 -133 8 -11 20 -24 25 -31 6 -6
26 -31 45 -56 19 -25 37 -47 40 -50 3 -3 125 -153 270 -335 145 -181 275 -344
289 -360 14 -17 40 -48 56 -70 17 -21 53 -66 80 -99 28 -34 114 -140 190 -236
77 -96 147 -184 157 -195 9 -11 60 -74 112 -140 53 -66 102 -127 109 -135 14
-18 194 -242 406 -505 84 -104 160 -199 169 -210 17 -21 87 -108 109 -135 20
-26 107 -134 120 -150 22 -27 164 -204 197 -245 17 -21 43 -53 57 -70 14 -16
173 -214 354 -440 709 -884 687 -857 810 -978 372 -366 800 -576 1350 -666 59
-9 14470 -7 14535 2 30 5 62 10 70 12 8 2 31 7 50 10 189 32 422 110 621 210
236 118 437 263 629 456 76 77 155 167 243 279 7 8 23 29 37 46 14 17 37 46
52 65 145 181 182 227 197 244 9 11 115 144 236 295 121 151 222 277 225 280
3 3 59 73 125 155 65 83 122 152 125 155 3 3 21 25 40 50 19 25 37 47 40 50 3
3 69 84 145 180 77 96 148 184 157 195 9 11 85 106 168 210 84 105 164 204
178 221 15 17 41 48 57 70 25 32 145 181 188 234 7 8 57 71 112 140 55 69 108
134 117 145 9 11 85 106 168 210 84 105 159 199 168 210 25 29 185 228 194
240 4 6 22 28 40 50 19 22 88 107 153 190 66 82 125 155 130 161 6 6 24 28 40
49 62 80 281 352 336 419 23 28 199 247 679 846 91 113 167 207 170 210 3 3
21 25 40 50 19 25 37 47 40 50 3 3 59 73 125 155 66 83 122 152 125 155 3 3
48 59 100 125 52 66 97 122 100 125 3 3 88 109 190 235 101 127 195 244 209
261 36 43 41 49 197 245 77 95 146 183 156 194 53 64 99 123 148 185 19 25 37
47 40 50 3 3 34 41 70 85 35 44 80 100 100 125 20 25 74 92 120 150 46 58 87
107 90 110 3 3 30 36 60 75 30 38 60 77 67 85 7 8 76 94 153 190 77 96 146
182 153 190 7 8 68 85 136 170 69 85 136 169 150 186 49 60 146 180 462 574
405 506 533 664 544 676 5 6 19 23 30 38 11 16 25 33 31 40 5 6 95 117 198
246 104 129 204 253 222 275 257 313 385 488 475 650 121 217 232 534 264 755
4 24 8 47 10 50 17 30 26 442 13 580 -16 154 -25 204 -123 625 -37 159 -68
296 -70 305 -3 14 -42 184 -50 220 -2 8 -15 65 -29 125 -15 61 -33 139 -41
175 -8 36 -26 115 -40 175 -14 61 -28 121 -31 135 -3 14 -14 61 -24 105 -11
44 -27 112 -35 150 -8 39 -17 77 -19 85 -2 8 -20 87 -41 175 -20 88 -47 207
-61 265 -13 58 -26 114 -28 125 -3 11 -19 81 -36 155 -18 74 -33 142 -35 150
-2 8 -19 85 -39 170 -20 85 -38 164 -41 175 -2 11 -20 92 -41 180 -20 88 -43
189 -51 225 -8 36 -16 72 -18 80 -5 17 -78 331 -100 430 -8 36 -26 115 -40
175 -14 61 -28 121 -31 135 -3 14 -16 70 -29 125 -13 55 -26 111 -28 125 -3
14 -10 45 -17 70 -7 25 -14 56 -17 70 -2 14 -9 45 -14 70 -6 25 -12 52 -14 60
-2 8 -17 73 -34 144 -17 70 -33 138 -35 150 -4 21 -29 128 -66 286 -11 47 -27
117 -35 155 -23 101 -29 125 -71 305 -9 36 -18 74 -20 85 -2 11 -8 41 -14 66
-6 26 -13 53 -14 60 -2 8 -6 28 -10 44 -4 17 -11 48 -16 70 -5 22 -20 87 -34
145 -14 58 -39 166 -56 240 -16 74 -57 252 -90 395 -55 235 -69 295 -86 375
-2 14 -7 33 -10 42 -3 9 -7 27 -9 40 -2 13 -9 41 -14 63 -6 22 -17 69 -25 105
-8 36 -24 103 -35 150 -11 47 -22 96 -25 110 -4 24 -68 298 -141 615 -20 83
-37 159 -40 170 -4 20 -17 77 -145 630 -39 171 -73 319 -75 330 -3 11 -13 58
-24 105 -12 47 -50 213 -86 370 -36 157 -72 313 -81 348 -8 35 -21 96 -30 135
-20 95 -19 90 -43 187 -22 92 -194 836 -216 935 -7 33 -27 121 -44 196 -18 75
-33 145 -35 155 -2 11 -9 39 -16 64 -7 25 -14 56 -17 70 -2 14 -9 43 -15 65
-5 22 -12 51 -14 64 -3 12 -12 53 -20 90 -9 36 -18 75 -20 86 -2 11 -26 117
-54 235 -112 480 -159 686 -164 710 -41 229 -171 566 -303 782 -201 331 -504
630 -833 823 -45 26 -351 178 -555 275 -60 29 -162 77 -225 107 -179 86 -336
161 -440 210 -52 25 -142 68 -200 95 -122 59 -293 140 -435 208 -150 72 -316
151 -450 215 -197 95 -364 174 -464 222 -52 24 -149 70 -215 102 -279 134
-504 242 -651 311 -44 21 -165 79 -268 129 -104 50 -190 91 -192 91 -2 0 -105
50 -230 110 -125 61 -228 110 -230 110 -1 0 -83 39 -181 86 -170 82 -275 132
-479 229 -49 23 -148 71 -220 105 -71 34 -168 80 -215 102 -47 22 -146 70
-220 105 -74 36 -175 85 -225 108 -180 85 -410 195 -670 320 -77 37 -180 86
-230 110 -212 100 -288 137 -430 205 -82 40 -181 87 -220 105 -38 18 -135 64
-215 102 -80 39 -179 86 -220 106 -41 19 -133 63 -205 97 -71 34 -179 86 -240
115 -60 29 -162 77 -225 108 -63 30 -164 78 -225 107 -60 29 -166 79 -235 112
-69 33 -170 82 -225 108 -133 63 -264 125 -474 226 -95 46 -174 84 -176 84 -1
0 -92 43 -201 96 -110 53 -218 104 -241 115 -22 10 -130 61 -238 114 -109 52
-199 95 -201 95 -1 0 -104 50 -229 110 -125 61 -228 110 -230 110 -2 0 -77 35
-167 79 -320 154 -404 194 -483 231 -76 36 -170 81 -475 227 -270 130 -395
178 -589 228 -200 51 -252 57 -556 62 -160 2 -293 2 -295 0z"/>
</g>
</svg>
